<svg width="512" height="512" viewBox="0 0 512 512" fill="none" xmlns="http://www.w3.org/2000/svg">
  <style>
    .nio-icon { fill: #000000; }
    @media (prefers-color-scheme: dark) {
      .nio-icon { fill: #ffffff; }
    }
  </style>
  <!-- Sky (Top Arch) -->
  <path class="nio-icon" d="M256,0C171.1,0,96,38.5,47.3,98.6c-4.9,6.1-5,14.6-0.3,20.8l50.4,66.3c4.6,6,13.2,7.3,19.3,2.8   c0,0,39.6-28.7,90.1-28.7c26,0,50.2,7.7,71.2,21.1c5.9,3.8,13.6,1.9,17.2-4.1l36.5-60.9c0,0,0,0,0-0.1c4.2-7,12.5-10.2,20.2-7.8   c5.6,1.8,11.2,3.8,16.7,6c7.4,3,15.9,0.5,20.2-6.1l49.8-76c4.6-7,2.8-16.5-4-21.2C394.1,38.6,328.6,0,256,0z" />
  
  <!-- Earth (Bottom Chevron) -->
  <path class="nio-icon" d="M97.1,349.8l82.1,82.1c5.9,5.9,15.4,5.9,21.2,0l55.6-55.6c0,0,0,0,0,0c5.9-5.9,15.4-5.9,21.2,0l55.6,55.6   c5.9,5.9,15.4,5.9,21.2,0l82.1-82.1c5.9-5.9,5.9-15.4,0-21.2l-148-148c-5.9-5.9-15.4-5.9-21.2,0l-148,148   C91.3,334.3,91.3,343.9,97.1,349.8z" />
</svg>
